<mxfile host="Electron" modified="2024-05-15T07:56:49.156Z" agent="Mozilla/5.0 (Windows NT 10.0; Win64; x64) AppleWebKit/537.36 (KHTML, like Gecko) draw.io/23.1.5 Chrome/120.0.6099.109 Electron/28.1.0 Safari/537.36" etag="SPXgZTD6IFLNV6H_okUH" version="23.1.5" type="device">
  <diagram name="Страница — 1" id="ykgxWVOW4HB1WRcRJP_r">
    <mxGraphModel dx="1214" dy="1304" grid="1" gridSize="10" guides="1" tooltips="1" connect="1" arrows="1" fold="1" page="1" pageScale="1" pageWidth="827" pageHeight="1169" math="0" shadow="0">
      <root>
        <mxCell id="0" />
        <mxCell id="1" parent="0" />
        <mxCell id="XVvClopPOMsPA55QxEFd-1" value="" style="group" vertex="1" connectable="0" parent="1">
          <mxGeometry x="240" y="230" width="120" height="120" as="geometry" />
        </mxCell>
        <mxCell id="4bTrYV1-L5UAAMsCu0EJ-12" value="" style="ellipse;whiteSpace=wrap;html=1;" parent="XVvClopPOMsPA55QxEFd-1" vertex="1">
          <mxGeometry width="120" height="120" as="geometry" />
        </mxCell>
        <mxCell id="4bTrYV1-L5UAAMsCu0EJ-22" value="" style="ellipse;whiteSpace=wrap;html=1;" parent="XVvClopPOMsPA55QxEFd-1" vertex="1">
          <mxGeometry x="40" width="40" height="40" as="geometry" />
        </mxCell>
        <mxCell id="4bTrYV1-L5UAAMsCu0EJ-31" value="&lt;font style=&quot;font-size: 18px;&quot;&gt;6&lt;/font&gt;" style="text;html=1;align=center;verticalAlign=middle;whiteSpace=wrap;rounded=0;" parent="XVvClopPOMsPA55QxEFd-1" vertex="1">
          <mxGeometry x="30" width="60" height="30" as="geometry" />
        </mxCell>
        <mxCell id="4bTrYV1-L5UAAMsCu0EJ-46" value="&lt;span style=&quot;color: rgb(0, 0, 0); font-family: Helvetica; font-size: 12px; font-style: normal; font-variant-ligatures: normal; font-variant-caps: normal; font-weight: 400; letter-spacing: normal; orphans: 2; text-align: left; text-indent: 0px; text-transform: none; widows: 2; word-spacing: 0px; -webkit-text-stroke-width: 0px; background-color: rgb(251, 251, 251); text-decoration-thickness: initial; text-decoration-style: initial; text-decoration-color: initial; float: none; display: inline !important;&quot;&gt;2024-04-25&lt;/span&gt;" style="text;whiteSpace=wrap;html=1;" parent="XVvClopPOMsPA55QxEFd-1" vertex="1">
          <mxGeometry x="29" y="70" width="70" height="20" as="geometry" />
        </mxCell>
        <mxCell id="4bTrYV1-L5UAAMsCu0EJ-55" value="&lt;span style=&quot;color: rgb(0, 0, 0); font-family: Helvetica; font-size: 12px; font-style: normal; font-variant-ligatures: normal; font-variant-caps: normal; font-weight: 400; letter-spacing: normal; orphans: 2; text-align: left; text-indent: 0px; text-transform: none; widows: 2; word-spacing: 0px; -webkit-text-stroke-width: 0px; background-color: rgb(251, 251, 251); text-decoration-thickness: initial; text-decoration-style: initial; text-decoration-color: initial; float: none; display: inline !important;&quot;&gt;sophia@example.com&lt;/span&gt;" style="text;whiteSpace=wrap;html=1;" parent="XVvClopPOMsPA55QxEFd-1" vertex="1">
          <mxGeometry y="50" width="120" height="20" as="geometry" />
        </mxCell>
        <mxCell id="4bTrYV1-L5UAAMsCu0EJ-63" value="&lt;span style=&quot;color: rgb(0, 0, 0); font-family: Helvetica; font-size: 12px; font-style: normal; font-variant-ligatures: normal; font-variant-caps: normal; font-weight: 400; letter-spacing: normal; orphans: 2; text-align: left; text-indent: 0px; text-transform: none; widows: 2; word-spacing: 0px; -webkit-text-stroke-width: 0px; background-color: rgb(251, 251, 251); text-decoration-thickness: initial; text-decoration-style: initial; text-decoration-color: initial; float: none; display: inline !important;&quot;&gt;Sophia&lt;/span&gt;" style="text;whiteSpace=wrap;html=1;" parent="XVvClopPOMsPA55QxEFd-1" vertex="1">
          <mxGeometry x="40" y="34" width="40" height="40" as="geometry" />
        </mxCell>
        <mxCell id="XVvClopPOMsPA55QxEFd-2" value="" style="group" vertex="1" connectable="0" parent="1">
          <mxGeometry x="480" y="230" width="120" height="120" as="geometry" />
        </mxCell>
        <mxCell id="4bTrYV1-L5UAAMsCu0EJ-1" value="" style="ellipse;whiteSpace=wrap;html=1;" parent="XVvClopPOMsPA55QxEFd-2" vertex="1">
          <mxGeometry width="120" height="120" as="geometry" />
        </mxCell>
        <mxCell id="4bTrYV1-L5UAAMsCu0EJ-17" value="" style="ellipse;whiteSpace=wrap;html=1;" parent="XVvClopPOMsPA55QxEFd-2" vertex="1">
          <mxGeometry x="40" width="40" height="40" as="geometry" />
        </mxCell>
        <mxCell id="4bTrYV1-L5UAAMsCu0EJ-27" value="&lt;font style=&quot;font-size: 18px;&quot;&gt;1&lt;/font&gt;" style="text;html=1;align=center;verticalAlign=middle;whiteSpace=wrap;rounded=0;" parent="XVvClopPOMsPA55QxEFd-2" vertex="1">
          <mxGeometry x="30" y="5" width="60" height="30" as="geometry" />
        </mxCell>
        <mxCell id="4bTrYV1-L5UAAMsCu0EJ-38" value="&lt;span style=&quot;color: rgb(0, 0, 0); font-family: Helvetica; font-size: 12px; font-style: normal; font-variant-ligatures: normal; font-variant-caps: normal; font-weight: 400; letter-spacing: normal; orphans: 2; text-align: left; text-indent: 0px; text-transform: none; widows: 2; word-spacing: 0px; -webkit-text-stroke-width: 0px; background-color: rgb(251, 251, 251); text-decoration-thickness: initial; text-decoration-style: initial; text-decoration-color: initial; float: none; display: inline !important;&quot;&gt;John&lt;/span&gt;" style="text;whiteSpace=wrap;html=1;" parent="XVvClopPOMsPA55QxEFd-2" vertex="1">
          <mxGeometry x="45" y="35" width="30" height="30" as="geometry" />
        </mxCell>
        <mxCell id="4bTrYV1-L5UAAMsCu0EJ-39" value="&lt;span style=&quot;color: rgb(0, 0, 0); font-family: Helvetica; font-size: 12px; font-style: normal; font-variant-ligatures: normal; font-variant-caps: normal; font-weight: 400; letter-spacing: normal; orphans: 2; text-align: left; text-indent: 0px; text-transform: none; widows: 2; word-spacing: 0px; -webkit-text-stroke-width: 0px; background-color: rgb(251, 251, 251); text-decoration-thickness: initial; text-decoration-style: initial; text-decoration-color: initial; float: none; display: inline !important;&quot;&gt;john@example.com&lt;/span&gt;" style="text;whiteSpace=wrap;html=1;" parent="XVvClopPOMsPA55QxEFd-2" vertex="1">
          <mxGeometry x="5" y="50" width="110" height="20" as="geometry" />
        </mxCell>
        <mxCell id="4bTrYV1-L5UAAMsCu0EJ-40" value="&lt;span style=&quot;color: rgb(0, 0, 0); font-family: Helvetica; font-size: 12px; font-style: normal; font-variant-ligatures: normal; font-variant-caps: normal; font-weight: 400; letter-spacing: normal; orphans: 2; text-align: left; text-indent: 0px; text-transform: none; widows: 2; word-spacing: 0px; -webkit-text-stroke-width: 0px; background-color: rgb(251, 251, 251); text-decoration-thickness: initial; text-decoration-style: initial; text-decoration-color: initial; float: none; display: inline !important;&quot;&gt;2024-04-25&lt;/span&gt;" style="text;whiteSpace=wrap;html=1;" parent="XVvClopPOMsPA55QxEFd-2" vertex="1">
          <mxGeometry x="29" y="70" width="70" height="20" as="geometry" />
        </mxCell>
        <mxCell id="XVvClopPOMsPA55QxEFd-3" value="" style="group" vertex="1" connectable="0" parent="1">
          <mxGeometry x="480" y="480" width="120" height="120" as="geometry" />
        </mxCell>
        <mxCell id="4bTrYV1-L5UAAMsCu0EJ-5" value="" style="ellipse;whiteSpace=wrap;html=1;" parent="XVvClopPOMsPA55QxEFd-3" vertex="1">
          <mxGeometry width="120" height="120" as="geometry" />
        </mxCell>
        <mxCell id="4bTrYV1-L5UAAMsCu0EJ-21" value="" style="ellipse;whiteSpace=wrap;html=1;" parent="XVvClopPOMsPA55QxEFd-3" vertex="1">
          <mxGeometry x="40" width="40" height="40" as="geometry" />
        </mxCell>
        <mxCell id="4bTrYV1-L5UAAMsCu0EJ-35" value="&lt;font style=&quot;font-size: 18px;&quot;&gt;2&lt;/font&gt;" style="text;html=1;align=center;verticalAlign=middle;whiteSpace=wrap;rounded=0;" parent="XVvClopPOMsPA55QxEFd-3" vertex="1">
          <mxGeometry x="30" width="60" height="30" as="geometry" />
        </mxCell>
        <mxCell id="4bTrYV1-L5UAAMsCu0EJ-41" value="&lt;span style=&quot;color: rgb(0, 0, 0); font-family: Helvetica; font-size: 12px; font-style: normal; font-variant-ligatures: normal; font-variant-caps: normal; font-weight: 400; letter-spacing: normal; orphans: 2; text-align: left; text-indent: 0px; text-transform: none; widows: 2; word-spacing: 0px; -webkit-text-stroke-width: 0px; background-color: rgb(251, 251, 251); text-decoration-thickness: initial; text-decoration-style: initial; text-decoration-color: initial; float: none; display: inline !important;&quot;&gt;Alice&lt;/span&gt;" style="text;whiteSpace=wrap;html=1;" parent="XVvClopPOMsPA55QxEFd-3" vertex="1">
          <mxGeometry x="45" y="35" width="30" height="20" as="geometry" />
        </mxCell>
        <mxCell id="4bTrYV1-L5UAAMsCu0EJ-50" value="&lt;span style=&quot;color: rgb(0, 0, 0); font-family: Helvetica; font-size: 12px; font-style: normal; font-variant-ligatures: normal; font-variant-caps: normal; font-weight: 400; letter-spacing: normal; orphans: 2; text-align: left; text-indent: 0px; text-transform: none; widows: 2; word-spacing: 0px; -webkit-text-stroke-width: 0px; background-color: rgb(251, 251, 251); text-decoration-thickness: initial; text-decoration-style: initial; text-decoration-color: initial; float: none; display: inline !important;&quot;&gt;2024-04-25&lt;/span&gt;" style="text;whiteSpace=wrap;html=1;" parent="XVvClopPOMsPA55QxEFd-3" vertex="1">
          <mxGeometry x="25" y="70" width="70" height="20" as="geometry" />
        </mxCell>
        <mxCell id="4bTrYV1-L5UAAMsCu0EJ-51" value="&lt;span style=&quot;color: rgb(0, 0, 0); font-family: Helvetica; font-size: 12px; font-style: normal; font-variant-ligatures: normal; font-variant-caps: normal; font-weight: 400; letter-spacing: normal; orphans: 2; text-align: left; text-indent: 0px; text-transform: none; widows: 2; word-spacing: 0px; -webkit-text-stroke-width: 0px; background-color: rgb(251, 251, 251); text-decoration-thickness: initial; text-decoration-style: initial; text-decoration-color: initial; float: none; display: inline !important;&quot;&gt;alice@example.com&lt;/span&gt;" style="text;whiteSpace=wrap;html=1;" parent="XVvClopPOMsPA55QxEFd-3" vertex="1">
          <mxGeometry x="5" y="50" width="110" height="20" as="geometry" />
        </mxCell>
        <mxCell id="XVvClopPOMsPA55QxEFd-4" value="" style="group" vertex="1" connectable="0" parent="1">
          <mxGeometry x="240" y="470" width="120" height="120" as="geometry" />
        </mxCell>
        <mxCell id="4bTrYV1-L5UAAMsCu0EJ-4" value="" style="ellipse;whiteSpace=wrap;html=1;" parent="XVvClopPOMsPA55QxEFd-4" vertex="1">
          <mxGeometry width="120" height="120" as="geometry" />
        </mxCell>
        <mxCell id="4bTrYV1-L5UAAMsCu0EJ-20" value="" style="ellipse;whiteSpace=wrap;html=1;" parent="XVvClopPOMsPA55QxEFd-4" vertex="1">
          <mxGeometry x="40" width="40" height="40" as="geometry" />
        </mxCell>
        <mxCell id="4bTrYV1-L5UAAMsCu0EJ-34" value="&lt;font style=&quot;font-size: 18px;&quot;&gt;3&lt;/font&gt;" style="text;html=1;align=center;verticalAlign=middle;whiteSpace=wrap;rounded=0;" parent="XVvClopPOMsPA55QxEFd-4" vertex="1">
          <mxGeometry x="30" width="60" height="30" as="geometry" />
        </mxCell>
        <mxCell id="4bTrYV1-L5UAAMsCu0EJ-49" value="&lt;span style=&quot;color: rgb(0, 0, 0); font-family: Helvetica; font-size: 12px; font-style: normal; font-variant-ligatures: normal; font-variant-caps: normal; font-weight: 400; letter-spacing: normal; orphans: 2; text-align: left; text-indent: 0px; text-transform: none; widows: 2; word-spacing: 0px; -webkit-text-stroke-width: 0px; background-color: rgb(251, 251, 251); text-decoration-thickness: initial; text-decoration-style: initial; text-decoration-color: initial; float: none; display: inline !important;&quot;&gt;2024-04-25&lt;/span&gt;" style="text;whiteSpace=wrap;html=1;" parent="XVvClopPOMsPA55QxEFd-4" vertex="1">
          <mxGeometry x="25" y="70" width="70" height="20" as="geometry" />
        </mxCell>
        <mxCell id="4bTrYV1-L5UAAMsCu0EJ-52" value="&lt;span style=&quot;color: rgb(0, 0, 0); font-family: Helvetica; font-size: 12px; font-style: normal; font-variant-ligatures: normal; font-variant-caps: normal; font-weight: 400; letter-spacing: normal; orphans: 2; text-align: left; text-indent: 0px; text-transform: none; widows: 2; word-spacing: 0px; -webkit-text-stroke-width: 0px; background-color: rgb(251, 251, 251); text-decoration-thickness: initial; text-decoration-style: initial; text-decoration-color: initial; float: none; display: inline !important;&quot;&gt;bob@example.com&lt;/span&gt;" style="text;whiteSpace=wrap;html=1;" parent="XVvClopPOMsPA55QxEFd-4" vertex="1">
          <mxGeometry x="5" y="50" width="110" height="20" as="geometry" />
        </mxCell>
        <mxCell id="4bTrYV1-L5UAAMsCu0EJ-60" value="&lt;span style=&quot;color: rgb(0, 0, 0); font-family: Helvetica; font-size: 12px; font-style: normal; font-variant-ligatures: normal; font-variant-caps: normal; font-weight: 400; letter-spacing: normal; orphans: 2; text-align: left; text-indent: 0px; text-transform: none; widows: 2; word-spacing: 0px; -webkit-text-stroke-width: 0px; background-color: rgb(251, 251, 251); text-decoration-thickness: initial; text-decoration-style: initial; text-decoration-color: initial; float: none; display: inline !important;&quot;&gt;Bob&lt;/span&gt;" style="text;whiteSpace=wrap;html=1;" parent="XVvClopPOMsPA55QxEFd-4" vertex="1">
          <mxGeometry x="45" y="40" width="30" height="20" as="geometry" />
        </mxCell>
        <mxCell id="XVvClopPOMsPA55QxEFd-5" value="" style="group" vertex="1" connectable="0" parent="1">
          <mxGeometry x="360" y="70" width="120" height="120" as="geometry" />
        </mxCell>
        <mxCell id="4bTrYV1-L5UAAMsCu0EJ-3" value="" style="ellipse;whiteSpace=wrap;html=1;" parent="XVvClopPOMsPA55QxEFd-5" vertex="1">
          <mxGeometry width="120" height="120" as="geometry" />
        </mxCell>
        <mxCell id="4bTrYV1-L5UAAMsCu0EJ-19" value="" style="ellipse;whiteSpace=wrap;html=1;" parent="XVvClopPOMsPA55QxEFd-5" vertex="1">
          <mxGeometry x="40" width="40" height="40" as="geometry" />
        </mxCell>
        <mxCell id="4bTrYV1-L5UAAMsCu0EJ-33" value="&lt;font style=&quot;font-size: 18px;&quot;&gt;4&lt;/font&gt;" style="text;html=1;align=center;verticalAlign=middle;whiteSpace=wrap;rounded=0;" parent="XVvClopPOMsPA55QxEFd-5" vertex="1">
          <mxGeometry x="30" width="60" height="30" as="geometry" />
        </mxCell>
        <mxCell id="4bTrYV1-L5UAAMsCu0EJ-48" value="&lt;span style=&quot;color: rgb(0, 0, 0); font-family: Helvetica; font-size: 12px; font-style: normal; font-variant-ligatures: normal; font-variant-caps: normal; font-weight: 400; letter-spacing: normal; orphans: 2; text-align: left; text-indent: 0px; text-transform: none; widows: 2; word-spacing: 0px; -webkit-text-stroke-width: 0px; background-color: rgb(251, 251, 251); text-decoration-thickness: initial; text-decoration-style: initial; text-decoration-color: initial; float: none; display: inline !important;&quot;&gt;2024-04-25&lt;/span&gt;" style="text;whiteSpace=wrap;html=1;" parent="XVvClopPOMsPA55QxEFd-5" vertex="1">
          <mxGeometry x="25" y="70" width="70" height="20" as="geometry" />
        </mxCell>
        <mxCell id="4bTrYV1-L5UAAMsCu0EJ-53" value="&lt;span style=&quot;color: rgb(0, 0, 0); font-family: Helvetica; font-size: 12px; font-style: normal; font-variant-ligatures: normal; font-variant-caps: normal; font-weight: 400; letter-spacing: normal; orphans: 2; text-align: left; text-indent: 0px; text-transform: none; widows: 2; word-spacing: 0px; -webkit-text-stroke-width: 0px; background-color: rgb(251, 251, 251); text-decoration-thickness: initial; text-decoration-style: initial; text-decoration-color: initial; float: none; display: inline !important;&quot;&gt;emily@example.com&lt;/span&gt;" style="text;whiteSpace=wrap;html=1;" parent="XVvClopPOMsPA55QxEFd-5" vertex="1">
          <mxGeometry x="5" y="50" width="110" height="20" as="geometry" />
        </mxCell>
        <mxCell id="4bTrYV1-L5UAAMsCu0EJ-61" value="&lt;span style=&quot;color: rgb(0, 0, 0); font-family: Helvetica; font-size: 12px; font-style: normal; font-variant-ligatures: normal; font-variant-caps: normal; font-weight: 400; letter-spacing: normal; orphans: 2; text-align: left; text-indent: 0px; text-transform: none; widows: 2; word-spacing: 0px; -webkit-text-stroke-width: 0px; background-color: rgb(251, 251, 251); text-decoration-thickness: initial; text-decoration-style: initial; text-decoration-color: initial; float: none; display: inline !important;&quot;&gt;Emily&lt;/span&gt;" style="text;whiteSpace=wrap;html=1;" parent="XVvClopPOMsPA55QxEFd-5" vertex="1">
          <mxGeometry x="45" y="40" width="30" height="30" as="geometry" />
        </mxCell>
        <mxCell id="XVvClopPOMsPA55QxEFd-6" value="" style="group" vertex="1" connectable="0" parent="1">
          <mxGeometry x="600" y="350" width="130" height="120" as="geometry" />
        </mxCell>
        <mxCell id="4bTrYV1-L5UAAMsCu0EJ-2" value="" style="ellipse;whiteSpace=wrap;html=1;" parent="XVvClopPOMsPA55QxEFd-6" vertex="1">
          <mxGeometry x="5" width="120" height="120" as="geometry" />
        </mxCell>
        <mxCell id="4bTrYV1-L5UAAMsCu0EJ-18" value="" style="ellipse;whiteSpace=wrap;html=1;" parent="XVvClopPOMsPA55QxEFd-6" vertex="1">
          <mxGeometry x="45" width="40" height="40" as="geometry" />
        </mxCell>
        <mxCell id="4bTrYV1-L5UAAMsCu0EJ-32" value="&lt;font style=&quot;font-size: 18px;&quot;&gt;5&lt;/font&gt;" style="text;html=1;align=center;verticalAlign=middle;whiteSpace=wrap;rounded=0;" parent="XVvClopPOMsPA55QxEFd-6" vertex="1">
          <mxGeometry x="35" width="60" height="30" as="geometry" />
        </mxCell>
        <mxCell id="4bTrYV1-L5UAAMsCu0EJ-47" value="&lt;span style=&quot;color: rgb(0, 0, 0); font-family: Helvetica; font-size: 12px; font-style: normal; font-variant-ligatures: normal; font-variant-caps: normal; font-weight: 400; letter-spacing: normal; orphans: 2; text-align: left; text-indent: 0px; text-transform: none; widows: 2; word-spacing: 0px; -webkit-text-stroke-width: 0px; background-color: rgb(251, 251, 251); text-decoration-thickness: initial; text-decoration-style: initial; text-decoration-color: initial; float: none; display: inline !important;&quot;&gt;2024-04-25&lt;/span&gt;" style="text;whiteSpace=wrap;html=1;" parent="XVvClopPOMsPA55QxEFd-6" vertex="1">
          <mxGeometry x="30" y="70" width="70" height="20" as="geometry" />
        </mxCell>
        <mxCell id="4bTrYV1-L5UAAMsCu0EJ-54" value="&lt;span style=&quot;color: rgb(0, 0, 0); font-family: Helvetica; font-size: 12px; font-style: normal; font-variant-ligatures: normal; font-variant-caps: normal; font-weight: 400; letter-spacing: normal; orphans: 2; text-align: left; text-indent: 0px; text-transform: none; widows: 2; word-spacing: 0px; -webkit-text-stroke-width: 0px; background-color: rgb(251, 251, 251); text-decoration-thickness: initial; text-decoration-style: initial; text-decoration-color: initial; float: none; display: inline !important;&quot;&gt;michael@example.com&lt;/span&gt;" style="text;whiteSpace=wrap;html=1;" parent="XVvClopPOMsPA55QxEFd-6" vertex="1">
          <mxGeometry y="50" width="130" height="20" as="geometry" />
        </mxCell>
        <mxCell id="4bTrYV1-L5UAAMsCu0EJ-62" value="&lt;span style=&quot;color: rgb(0, 0, 0); font-family: Helvetica; font-size: 12px; font-style: normal; font-variant-ligatures: normal; font-variant-caps: normal; font-weight: 400; letter-spacing: normal; orphans: 2; text-align: left; text-indent: 0px; text-transform: none; widows: 2; word-spacing: 0px; -webkit-text-stroke-width: 0px; background-color: rgb(251, 251, 251); text-decoration-thickness: initial; text-decoration-style: initial; text-decoration-color: initial; float: none; display: inline !important;&quot;&gt;Michael&lt;/span&gt;" style="text;whiteSpace=wrap;html=1;" parent="XVvClopPOMsPA55QxEFd-6" vertex="1">
          <mxGeometry x="40" y="40" width="50" height="20" as="geometry" />
        </mxCell>
        <mxCell id="XVvClopPOMsPA55QxEFd-7" value="" style="group" vertex="1" connectable="0" parent="1">
          <mxGeometry x="600" y="630" width="120" height="120" as="geometry" />
        </mxCell>
        <mxCell id="4bTrYV1-L5UAAMsCu0EJ-16" value="" style="ellipse;whiteSpace=wrap;html=1;" parent="XVvClopPOMsPA55QxEFd-7" vertex="1">
          <mxGeometry width="120" height="120" as="geometry" />
        </mxCell>
        <mxCell id="4bTrYV1-L5UAAMsCu0EJ-23" value="" style="ellipse;whiteSpace=wrap;html=1;" parent="XVvClopPOMsPA55QxEFd-7" vertex="1">
          <mxGeometry x="40" width="40" height="40" as="geometry" />
        </mxCell>
        <mxCell id="XVvClopPOMsPA55QxEFd-26" style="edgeStyle=orthogonalEdgeStyle;rounded=0;orthogonalLoop=1;jettySize=auto;html=1;exitX=0.5;exitY=0;exitDx=0;exitDy=0;" edge="1" parent="XVvClopPOMsPA55QxEFd-7" source="4bTrYV1-L5UAAMsCu0EJ-36">
          <mxGeometry relative="1" as="geometry">
            <mxPoint x="60.117647058823536" y="-160" as="targetPoint" />
          </mxGeometry>
        </mxCell>
        <mxCell id="4bTrYV1-L5UAAMsCu0EJ-36" value="&lt;font style=&quot;font-size: 18px;&quot;&gt;10&lt;/font&gt;" style="text;html=1;align=center;verticalAlign=middle;whiteSpace=wrap;rounded=0;" parent="XVvClopPOMsPA55QxEFd-7" vertex="1">
          <mxGeometry x="30" width="60" height="30" as="geometry" />
        </mxCell>
        <mxCell id="4bTrYV1-L5UAAMsCu0EJ-42" value="&lt;span style=&quot;color: rgb(0, 0, 0); font-family: Helvetica; font-size: 12px; font-style: normal; font-variant-ligatures: normal; font-variant-caps: normal; font-weight: 400; letter-spacing: normal; orphans: 2; text-align: left; text-indent: 0px; text-transform: none; widows: 2; word-spacing: 0px; -webkit-text-stroke-width: 0px; background-color: rgb(251, 251, 251); text-decoration-thickness: initial; text-decoration-style: initial; text-decoration-color: initial; float: none; display: inline !important;&quot;&gt;2024-04-25&lt;/span&gt;" style="text;whiteSpace=wrap;html=1;" parent="XVvClopPOMsPA55QxEFd-7" vertex="1">
          <mxGeometry x="25" y="70" width="70" height="20" as="geometry" />
        </mxCell>
        <mxCell id="4bTrYV1-L5UAAMsCu0EJ-59" value="&lt;span style=&quot;color: rgb(0, 0, 0); font-family: Helvetica; font-size: 12px; font-style: normal; font-variant-ligatures: normal; font-variant-caps: normal; font-weight: 400; letter-spacing: normal; orphans: 2; text-align: left; text-indent: 0px; text-transform: none; widows: 2; word-spacing: 0px; -webkit-text-stroke-width: 0px; background-color: rgb(251, 251, 251); text-decoration-thickness: initial; text-decoration-style: initial; text-decoration-color: initial; float: none; display: inline !important;&quot;&gt;emma@example.com&lt;/span&gt;" style="text;whiteSpace=wrap;html=1;" parent="XVvClopPOMsPA55QxEFd-7" vertex="1">
          <mxGeometry x="2.5" y="50" width="115" height="20" as="geometry" />
        </mxCell>
        <mxCell id="4bTrYV1-L5UAAMsCu0EJ-67" value="&lt;span style=&quot;color: rgb(0, 0, 0); font-family: Helvetica; font-size: 12px; font-style: normal; font-variant-ligatures: normal; font-variant-caps: normal; font-weight: 400; letter-spacing: normal; orphans: 2; text-align: left; text-indent: 0px; text-transform: none; widows: 2; word-spacing: 0px; -webkit-text-stroke-width: 0px; background-color: rgb(251, 251, 251); text-decoration-thickness: initial; text-decoration-style: initial; text-decoration-color: initial; float: none; display: inline !important;&quot;&gt;Emma&lt;/span&gt;" style="text;whiteSpace=wrap;html=1;" parent="XVvClopPOMsPA55QxEFd-7" vertex="1">
          <mxGeometry x="40" y="34" width="40" height="20" as="geometry" />
        </mxCell>
        <mxCell id="XVvClopPOMsPA55QxEFd-8" value="" style="group" vertex="1" connectable="0" parent="1">
          <mxGeometry x="360" y="630" width="120" height="120" as="geometry" />
        </mxCell>
        <mxCell id="4bTrYV1-L5UAAMsCu0EJ-13" value="" style="ellipse;whiteSpace=wrap;html=1;" parent="XVvClopPOMsPA55QxEFd-8" vertex="1">
          <mxGeometry width="120" height="120" as="geometry" />
        </mxCell>
        <mxCell id="4bTrYV1-L5UAAMsCu0EJ-24" value="" style="ellipse;whiteSpace=wrap;html=1;" parent="XVvClopPOMsPA55QxEFd-8" vertex="1">
          <mxGeometry x="40" width="40" height="40" as="geometry" />
        </mxCell>
        <mxCell id="4bTrYV1-L5UAAMsCu0EJ-28" value="&lt;font style=&quot;font-size: 18px;&quot;&gt;9&lt;/font&gt;" style="text;html=1;align=center;verticalAlign=middle;whiteSpace=wrap;rounded=0;" parent="XVvClopPOMsPA55QxEFd-8" vertex="1">
          <mxGeometry x="30" width="60" height="30" as="geometry" />
        </mxCell>
        <mxCell id="4bTrYV1-L5UAAMsCu0EJ-43" value="&lt;span style=&quot;color: rgb(0, 0, 0); font-family: Helvetica; font-size: 12px; font-style: normal; font-variant-ligatures: normal; font-variant-caps: normal; font-weight: 400; letter-spacing: normal; orphans: 2; text-align: left; text-indent: 0px; text-transform: none; widows: 2; word-spacing: 0px; -webkit-text-stroke-width: 0px; background-color: rgb(251, 251, 251); text-decoration-thickness: initial; text-decoration-style: initial; text-decoration-color: initial; float: none; display: inline !important;&quot;&gt;2024-04-25&lt;/span&gt;" style="text;whiteSpace=wrap;html=1;" parent="XVvClopPOMsPA55QxEFd-8" vertex="1">
          <mxGeometry x="25" y="70" width="70" height="20" as="geometry" />
        </mxCell>
        <mxCell id="4bTrYV1-L5UAAMsCu0EJ-58" value="&lt;span style=&quot;color: rgb(0, 0, 0); font-family: Helvetica; font-size: 12px; font-style: normal; font-variant-ligatures: normal; font-variant-caps: normal; font-weight: 400; letter-spacing: normal; orphans: 2; text-align: left; text-indent: 0px; text-transform: none; widows: 2; word-spacing: 0px; -webkit-text-stroke-width: 0px; background-color: rgb(251, 251, 251); text-decoration-thickness: initial; text-decoration-style: initial; text-decoration-color: initial; float: none; display: inline !important;&quot;&gt;james@example.com&lt;/span&gt;" style="text;whiteSpace=wrap;html=1;" parent="XVvClopPOMsPA55QxEFd-8" vertex="1">
          <mxGeometry x="2.5" y="50" width="115" height="20" as="geometry" />
        </mxCell>
        <mxCell id="4bTrYV1-L5UAAMsCu0EJ-66" value="&lt;span style=&quot;color: rgb(0, 0, 0); font-family: Helvetica; font-size: 12px; font-style: normal; font-variant-ligatures: normal; font-variant-caps: normal; font-weight: 400; letter-spacing: normal; orphans: 2; text-align: left; text-indent: 0px; text-transform: none; widows: 2; word-spacing: 0px; -webkit-text-stroke-width: 0px; background-color: rgb(251, 251, 251); text-decoration-thickness: initial; text-decoration-style: initial; text-decoration-color: initial; float: none; display: inline !important;&quot;&gt;James&lt;/span&gt;" style="text;whiteSpace=wrap;html=1;" parent="XVvClopPOMsPA55QxEFd-8" vertex="1">
          <mxGeometry x="40" y="34" width="40" height="20" as="geometry" />
        </mxCell>
        <mxCell id="XVvClopPOMsPA55QxEFd-9" value="" style="group" vertex="1" connectable="0" parent="1">
          <mxGeometry x="80" y="590" width="120" height="120" as="geometry" />
        </mxCell>
        <mxCell id="4bTrYV1-L5UAAMsCu0EJ-14" value="" style="ellipse;whiteSpace=wrap;html=1;" parent="XVvClopPOMsPA55QxEFd-9" vertex="1">
          <mxGeometry width="120" height="120" as="geometry" />
        </mxCell>
        <mxCell id="4bTrYV1-L5UAAMsCu0EJ-25" value="" style="ellipse;whiteSpace=wrap;html=1;" parent="XVvClopPOMsPA55QxEFd-9" vertex="1">
          <mxGeometry x="40" width="40" height="40" as="geometry" />
        </mxCell>
        <mxCell id="4bTrYV1-L5UAAMsCu0EJ-29" value="&lt;font style=&quot;font-size: 18px;&quot;&gt;8&lt;/font&gt;" style="text;html=1;align=center;verticalAlign=middle;whiteSpace=wrap;rounded=0;" parent="XVvClopPOMsPA55QxEFd-9" vertex="1">
          <mxGeometry x="30" width="60" height="30" as="geometry" />
        </mxCell>
        <mxCell id="4bTrYV1-L5UAAMsCu0EJ-44" value="&lt;span style=&quot;color: rgb(0, 0, 0); font-family: Helvetica; font-size: 12px; font-style: normal; font-variant-ligatures: normal; font-variant-caps: normal; font-weight: 400; letter-spacing: normal; orphans: 2; text-align: left; text-indent: 0px; text-transform: none; widows: 2; word-spacing: 0px; -webkit-text-stroke-width: 0px; background-color: rgb(251, 251, 251); text-decoration-thickness: initial; text-decoration-style: initial; text-decoration-color: initial; float: none; display: inline !important;&quot;&gt;2024-04-25&lt;/span&gt;" style="text;whiteSpace=wrap;html=1;" parent="XVvClopPOMsPA55QxEFd-9" vertex="1">
          <mxGeometry x="25" y="70" width="70" height="20" as="geometry" />
        </mxCell>
        <mxCell id="4bTrYV1-L5UAAMsCu0EJ-57" value="&lt;span style=&quot;color: rgb(0, 0, 0); font-family: Helvetica; font-size: 12px; font-style: normal; font-variant-ligatures: normal; font-variant-caps: normal; font-weight: 400; letter-spacing: normal; orphans: 2; text-align: left; text-indent: 0px; text-transform: none; widows: 2; word-spacing: 0px; -webkit-text-stroke-width: 0px; background-color: rgb(251, 251, 251); text-decoration-thickness: initial; text-decoration-style: initial; text-decoration-color: initial; float: none; display: inline !important;&quot;&gt;olivia@example.com&lt;/span&gt;" style="text;whiteSpace=wrap;html=1;" parent="XVvClopPOMsPA55QxEFd-9" vertex="1">
          <mxGeometry x="5" y="50" width="110" height="20" as="geometry" />
        </mxCell>
        <mxCell id="4bTrYV1-L5UAAMsCu0EJ-65" value="&lt;span style=&quot;color: rgb(0, 0, 0); font-family: Helvetica; font-size: 12px; font-style: normal; font-variant-ligatures: normal; font-variant-caps: normal; font-weight: 400; letter-spacing: normal; orphans: 2; text-align: left; text-indent: 0px; text-transform: none; widows: 2; word-spacing: 0px; -webkit-text-stroke-width: 0px; background-color: rgb(251, 251, 251); text-decoration-thickness: initial; text-decoration-style: initial; text-decoration-color: initial; float: none; display: inline !important;&quot;&gt;Olivia&lt;/span&gt;" style="text;whiteSpace=wrap;html=1;" parent="XVvClopPOMsPA55QxEFd-9" vertex="1">
          <mxGeometry x="45" y="34" width="30" height="20" as="geometry" />
        </mxCell>
        <mxCell id="XVvClopPOMsPA55QxEFd-10" value="" style="group" vertex="1" connectable="0" parent="1">
          <mxGeometry x="80" y="350" width="120" height="120" as="geometry" />
        </mxCell>
        <mxCell id="XVvClopPOMsPA55QxEFd-37" style="edgeStyle=orthogonalEdgeStyle;rounded=0;orthogonalLoop=1;jettySize=auto;html=1;exitX=0.5;exitY=1;exitDx=0;exitDy=0;" edge="1" parent="XVvClopPOMsPA55QxEFd-10" source="4bTrYV1-L5UAAMsCu0EJ-15">
          <mxGeometry relative="1" as="geometry">
            <mxPoint x="59.55555555555543" y="240" as="targetPoint" />
          </mxGeometry>
        </mxCell>
        <mxCell id="4bTrYV1-L5UAAMsCu0EJ-15" value="" style="ellipse;whiteSpace=wrap;html=1;" parent="XVvClopPOMsPA55QxEFd-10" vertex="1">
          <mxGeometry width="120" height="120" as="geometry" />
        </mxCell>
        <mxCell id="4bTrYV1-L5UAAMsCu0EJ-26" value="" style="ellipse;whiteSpace=wrap;html=1;" parent="XVvClopPOMsPA55QxEFd-10" vertex="1">
          <mxGeometry x="40" width="40" height="40" as="geometry" />
        </mxCell>
        <mxCell id="4bTrYV1-L5UAAMsCu0EJ-30" value="&lt;font style=&quot;font-size: 18px;&quot;&gt;7&lt;/font&gt;" style="text;html=1;align=center;verticalAlign=middle;whiteSpace=wrap;rounded=0;" parent="XVvClopPOMsPA55QxEFd-10" vertex="1">
          <mxGeometry x="30" width="60" height="30" as="geometry" />
        </mxCell>
        <mxCell id="4bTrYV1-L5UAAMsCu0EJ-45" value="&lt;span style=&quot;color: rgb(0, 0, 0); font-family: Helvetica; font-size: 12px; font-style: normal; font-variant-ligatures: normal; font-variant-caps: normal; font-weight: 400; letter-spacing: normal; orphans: 2; text-align: left; text-indent: 0px; text-transform: none; widows: 2; word-spacing: 0px; -webkit-text-stroke-width: 0px; background-color: rgb(251, 251, 251); text-decoration-thickness: initial; text-decoration-style: initial; text-decoration-color: initial; float: none; display: inline !important;&quot;&gt;2024-04-25&lt;/span&gt;" style="text;whiteSpace=wrap;html=1;" parent="XVvClopPOMsPA55QxEFd-10" vertex="1">
          <mxGeometry x="25" y="70" width="70" height="20" as="geometry" />
        </mxCell>
        <mxCell id="4bTrYV1-L5UAAMsCu0EJ-56" value="&lt;span style=&quot;color: rgb(0, 0, 0); font-family: Helvetica; font-size: 12px; font-style: normal; font-variant-ligatures: normal; font-variant-caps: normal; font-weight: 400; letter-spacing: normal; orphans: 2; text-align: left; text-indent: 0px; text-transform: none; widows: 2; word-spacing: 0px; -webkit-text-stroke-width: 0px; background-color: rgb(251, 251, 251); text-decoration-thickness: initial; text-decoration-style: initial; text-decoration-color: initial; float: none; display: inline !important;&quot;&gt;william@example.com&lt;/span&gt;" style="text;whiteSpace=wrap;html=1;" parent="XVvClopPOMsPA55QxEFd-10" vertex="1">
          <mxGeometry y="50" width="120" height="20" as="geometry" />
        </mxCell>
        <mxCell id="4bTrYV1-L5UAAMsCu0EJ-64" value="&lt;span style=&quot;color: rgb(0, 0, 0); font-family: Helvetica; font-size: 12px; font-style: normal; font-variant-ligatures: normal; font-variant-caps: normal; font-weight: 400; letter-spacing: normal; orphans: 2; text-align: left; text-indent: 0px; text-transform: none; widows: 2; word-spacing: 0px; -webkit-text-stroke-width: 0px; background-color: rgb(251, 251, 251); text-decoration-thickness: initial; text-decoration-style: initial; text-decoration-color: initial; float: none; display: inline !important;&quot;&gt;William&lt;/span&gt;" style="text;whiteSpace=wrap;html=1;" parent="XVvClopPOMsPA55QxEFd-10" vertex="1">
          <mxGeometry x="40" y="34" width="40" height="20" as="geometry" />
        </mxCell>
        <mxCell id="XVvClopPOMsPA55QxEFd-23" style="rounded=0;orthogonalLoop=1;jettySize=auto;html=1;exitX=1;exitY=1;exitDx=0;exitDy=0;entryX=0;entryY=0.25;entryDx=0;entryDy=0;" edge="1" parent="1" source="4bTrYV1-L5UAAMsCu0EJ-5" target="4bTrYV1-L5UAAMsCu0EJ-36">
          <mxGeometry relative="1" as="geometry" />
        </mxCell>
        <mxCell id="XVvClopPOMsPA55QxEFd-25" style="edgeStyle=orthogonalEdgeStyle;rounded=0;orthogonalLoop=1;jettySize=auto;html=1;exitX=0.5;exitY=1;exitDx=0;exitDy=0;" edge="1" parent="1" source="4bTrYV1-L5UAAMsCu0EJ-1" target="4bTrYV1-L5UAAMsCu0EJ-35">
          <mxGeometry relative="1" as="geometry" />
        </mxCell>
        <mxCell id="XVvClopPOMsPA55QxEFd-27" style="rounded=0;orthogonalLoop=1;jettySize=auto;html=1;exitX=0;exitY=1;exitDx=0;exitDy=0;entryX=1;entryY=0;entryDx=0;entryDy=0;" edge="1" parent="1" source="4bTrYV1-L5UAAMsCu0EJ-2" target="4bTrYV1-L5UAAMsCu0EJ-5">
          <mxGeometry relative="1" as="geometry" />
        </mxCell>
        <mxCell id="XVvClopPOMsPA55QxEFd-28" style="rounded=0;orthogonalLoop=1;jettySize=auto;html=1;exitX=0;exitY=1;exitDx=0;exitDy=0;entryX=1;entryY=0;entryDx=0;entryDy=0;" edge="1" parent="1" source="4bTrYV1-L5UAAMsCu0EJ-5" target="4bTrYV1-L5UAAMsCu0EJ-13">
          <mxGeometry relative="1" as="geometry" />
        </mxCell>
        <mxCell id="XVvClopPOMsPA55QxEFd-29" style="rounded=0;orthogonalLoop=1;jettySize=auto;html=1;exitX=0;exitY=0;exitDx=0;exitDy=0;entryX=0.729;entryY=0.932;entryDx=0;entryDy=0;entryPerimeter=0;" edge="1" parent="1" source="4bTrYV1-L5UAAMsCu0EJ-13" target="4bTrYV1-L5UAAMsCu0EJ-4">
          <mxGeometry relative="1" as="geometry" />
        </mxCell>
        <mxCell id="XVvClopPOMsPA55QxEFd-30" style="rounded=0;orthogonalLoop=1;jettySize=auto;html=1;exitX=1;exitY=0;exitDx=0;exitDy=0;entryX=0;entryY=1;entryDx=0;entryDy=0;" edge="1" parent="1" source="4bTrYV1-L5UAAMsCu0EJ-4" target="4bTrYV1-L5UAAMsCu0EJ-1">
          <mxGeometry relative="1" as="geometry" />
        </mxCell>
        <mxCell id="XVvClopPOMsPA55QxEFd-32" style="edgeStyle=orthogonalEdgeStyle;rounded=0;orthogonalLoop=1;jettySize=auto;html=1;exitX=0;exitY=0.5;exitDx=0;exitDy=0;entryX=1;entryY=0.5;entryDx=0;entryDy=0;" edge="1" parent="1" source="4bTrYV1-L5UAAMsCu0EJ-1" target="4bTrYV1-L5UAAMsCu0EJ-55">
          <mxGeometry relative="1" as="geometry" />
        </mxCell>
        <mxCell id="XVvClopPOMsPA55QxEFd-33" style="rounded=0;orthogonalLoop=1;jettySize=auto;html=1;exitX=1;exitY=0;exitDx=0;exitDy=0;entryX=0;entryY=1;entryDx=0;entryDy=0;" edge="1" parent="1" source="4bTrYV1-L5UAAMsCu0EJ-12" target="4bTrYV1-L5UAAMsCu0EJ-3">
          <mxGeometry relative="1" as="geometry" />
        </mxCell>
        <mxCell id="XVvClopPOMsPA55QxEFd-34" style="rounded=0;orthogonalLoop=1;jettySize=auto;html=1;exitX=0.5;exitY=1;exitDx=0;exitDy=0;entryX=0;entryY=0;entryDx=0;entryDy=0;" edge="1" parent="1" source="4bTrYV1-L5UAAMsCu0EJ-3" target="4bTrYV1-L5UAAMsCu0EJ-5">
          <mxGeometry relative="1" as="geometry" />
        </mxCell>
        <mxCell id="XVvClopPOMsPA55QxEFd-35" style="edgeStyle=orthogonalEdgeStyle;rounded=0;orthogonalLoop=1;jettySize=auto;html=1;exitX=0.5;exitY=0;exitDx=0;exitDy=0;entryX=1;entryY=0.5;entryDx=0;entryDy=0;" edge="1" parent="1" source="4bTrYV1-L5UAAMsCu0EJ-32" target="4bTrYV1-L5UAAMsCu0EJ-3">
          <mxGeometry relative="1" as="geometry" />
        </mxCell>
        <mxCell id="XVvClopPOMsPA55QxEFd-36" style="rounded=0;orthogonalLoop=1;jettySize=auto;html=1;exitX=0;exitY=1;exitDx=0;exitDy=0;entryX=1;entryY=0;entryDx=0;entryDy=0;" edge="1" parent="1" source="4bTrYV1-L5UAAMsCu0EJ-12" target="4bTrYV1-L5UAAMsCu0EJ-15">
          <mxGeometry relative="1" as="geometry" />
        </mxCell>
        <mxCell id="XVvClopPOMsPA55QxEFd-38" style="rounded=0;orthogonalLoop=1;jettySize=auto;html=1;exitX=1;exitY=0;exitDx=0;exitDy=0;entryX=0;entryY=1;entryDx=0;entryDy=0;" edge="1" parent="1" source="4bTrYV1-L5UAAMsCu0EJ-14" target="4bTrYV1-L5UAAMsCu0EJ-4">
          <mxGeometry relative="1" as="geometry" />
        </mxCell>
      </root>
    </mxGraphModel>
  </diagram>
</mxfile>
